PathFileType	4	(X/Y/Z)	US003Walk_3.trc	
DataRate	CameraRate	NumFrames	NumMarkers	Units	OrigDataRate	OrigDataStartFrame	OrigNumFrames	
100.00	100.00	11	22	mm	100.00	1026	99	
Frame#	Time	LFEO			LFEP			LTIO			RFEO			RFEP			RTIO			LASI			RASI			LPSI			RPSI			LTHI			LKNE			LTIB			LANK			LHEE			LTOE			RTHI			RKNE			RTIB			RANK			RHEE			RTOE			
		X1	Y1	Z1	X2	Y2	Z2	X3	Y3	Z3	X4	Y4	Z4	X5	Y5	Z5	X6	Y6	Z6	X7	Y7	Z7	X8	Y8	Z8	X9	Y9	Z9	X10	Y10	Z10	X11	Y11	Z11	X12	Y12	Z12	X13	Y13	Z13	X14	Y14	Z14	X15	Y15	Z15	X16	Y16	Z16	X17	Y17	Z17	X18	Y18	Z18	X19	Y19	Z19	X20	Y20	Z20	X21	Y21	Z21	X22	Y22	Z22	

60	0.590	1348.33716	345.63721	-479.27075	1264.91870	577.51813	-482.46271	1302.58423	87.87492	-511.01785	1217.86121	320.17355	-337.05255	1248.07251	569.15424	-350.87585	1049.30908	116.59591	-310.53085	1316.29810	624.46698	-494.81839	1292.53540	613.25641	-319.68738	1191.13818	652.69495	-453.63196	1186.51892	648.20129	-393.77628	1324.51318	433.84158	-575.68567	1351.90991	346.29120	-525.12708	1357.29333	189.66077	-584.83649	1315.33435	89.22278	-540.33698	1260.96680	102.31735	-543.11786	1355.54224	33.41005	-462.20523	1209.00549	419.83472	-252.71059	1207.72473	323.91449	-291.82520	1132.75989	182.94316	-241.20514	1057.97888	113.47807	-279.36411	1032.93335	157.82281	-299.48895	1036.84875	31.43406	-338.07172 
61	0.600	1352.73511	345.65289	-481.47028	1271.52368	578.53967	-483.85843	1303.08862	88.07506	-511.36566	1227.17383	320.35092	-338.78946	1256.43616	569.43945	-352.10727	1058.04724	117.26067	-308.56793	1322.77954	625.50494	-496.60526	1301.36475	613.31976	-321.29657	1198.25842	653.68555	-453.62976	1194.62585	648.66119	-393.71469	1326.62097	433.24329	-577.81586	1354.78320	345.89578	-527.42401	1358.43225	188.79932	-586.23602	1315.55847	89.08997	-540.81848	1261.37329	102.80527	-543.40155	1355.46484	33.41340	-462.39124	1219.38281	419.41916	-254.25429	1217.73035	323.88724	-293.39597	1144.20337	182.87639	-241.43250	1067.65088	113.85545	-277.70657	1042.85034	158.74612	-296.58047	1042.60254	31.97694	-336.64954 
62	0.610	1356.14063	345.70016	-483.06134	1277.79480	579.72345	-485.04532	1303.44336	88.36237	-511.36578	1236.50525	320.94385	-341.08640	1264.44397	570.33643	-353.12689	1067.35583	118.19312	-307.08093	1328.94434	626.63666	-498.31247	1309.85193	614.07898	-322.86349	1205.09290	654.95911	-453.70227	1202.49170	649.61945	-393.72131	1328.85547	432.92023	-579.38562	1357.08606	345.62686	-529.05151	1359.05872	188.23886	-587.15765	1315.62000	89.12260	-540.94855	1261.58618	103.33851	-543.25354	1355.42395	33.41988	-462.47015	1230.69897	419.17834	-255.86385	1228.29443	324.06818	-295.42377	1156.54700	182.65106	-242.46782	1078.10950	114.32441	-276.65649	1053.16589	159.65082	-294.09033	1049.65723	32.46302	-335.49292 
63	0.620	1358.55115	345.81467	-484.05099	1283.79089	581.10974	-486.04468	1303.66357	88.74448	-511.03735	1245.82349	321.87503	-343.78961	1272.12781	571.74103	-353.96497	1077.23303	119.33356	-306.12869	1334.83386	627.93585	-499.90155	1317.99939	615.41455	-324.35861	1211.63513	656.49268	-453.77179	1210.08667	651.00543	-393.71616	1331.41602	432.98502	-580.42780	1358.90881	345.53864	-530.04871	1359.18750	187.99883	-587.65631	1315.53235	89.32938	-540.74908	1261.62622	103.95007	-542.68652	1355.40430	33.42869	-462.45398	1242.88147	419.11859	-257.49466	1239.36316	324.42752	-297.81131	1169.56519	182.32309	-244.24925	1089.26160	114.87366	-276.26773	1063.85193	160.52585	-292.15927	1058.01855	32.84788	-334.65826 
64	0.630	1360.12341	346.05344	-484.50711	1289.55872	582.71344	-486.86658	1303.79639	89.23168	-510.45401	1255.12439	323.08414	-346.70795	1279.52051	573.54797	-354.63913	1087.65930	120.62470	-305.72485	1340.48047	629.44592	-501.33691	1325.81970	617.20856	-325.75116	1217.89014	658.24878	-453.76694	1217.36682	652.74475	-393.62027	1334.29919	433.44781	-581.00977	1360.35229	345.66315	-530.50482	1358.96240	188.06544	-587.79309	1315.36096	89.70939	-540.28729	1261.56458	104.65909	-541.78992	1355.39453	33.43900	-462.36557	1255.74524	419.26117	-259.12061	1250.83691	324.96674	-300.44424	1183.01331	181.98540	-246.65010	1100.99133	115.50678	-276.53043	1074.87793	161.36766	-290.88019	1067.63818	33.12690	-334.17062 
65	0.640	1361.11865	346.46512	-484.54614	1295.12732	584.51050	-487.50473	1303.89929	89.82806	-509.71146	1264.45361	324.52435	-349.64932	1286.64355	575.66577	-355.14685	1098.59668	122.02310	-305.84369	1345.90735	631.15753	-502.58646	1333.32471	619.36035	-327.01028	1223.87646	660.17737	-453.64435	1224.28064	654.77057	-393.38089	1337.34326	434.24219	-581.22253	1361.51538	346.00336	-530.54211	1358.57959	188.39706	-587.63727	1315.18652	90.24727	-539.65155	1261.48767	105.46812	-540.68774	1355.38928	33.44981	-462.23346	1269.01135	419.63211	-260.72647	1262.59412	325.70532	-303.20148	1196.66296	181.74437	-249.49974	1113.17432	116.24127	-277.37762	1086.20398	162.18423	-290.29303	1078.42969	33.33284	-334.02768 
66	0.650	1361.81287	347.06396	-484.30634	1300.51025	586.44250	-487.94547	1304.02368	90.52261	-508.89481	1273.90210	326.15451	-352.45502	1293.50452	578.01532	-355.47385	1109.99524	123.49510	-306.42935	1351.13074	633.01215	-503.62790	1340.52234	621.78375	-328.11072	1229.62329	662.22101	-453.39398	1230.79529	657.02332	-392.98129	1340.30750	435.26346	-581.16992	1362.46960	346.53296	-530.29852	1358.19250	188.93723	-587.27216	1315.06897	90.91284	-538.92554	1261.46301	106.36454	-539.49225	1355.38818	33.46006	-462.08511	1282.34888	420.25076	-262.29367	1274.51379	326.66409	-305.96182	1210.32336	181.70241	-252.60323	1125.69177	117.09772	-278.69955	1097.77991	162.99283	-290.38037	1090.27588	33.52123	-334.21906 
67	0.660	1362.42395	347.82718	-483.91983	1305.70715	588.43237	-488.18011	1304.20752	91.28904	-508.05838	1283.57703	327.93518	-355.01675	1300.09778	580.52283	-355.61002	1121.79883	125.00571	-307.41113	1356.16174	634.92206	-504.45667	1347.41589	624.39453	-329.03595	1235.16663	664.32037	-453.03326	1236.92322	659.43781	-392.43692	1342.95166	436.39963	-580.95386	1363.24768	347.20706	-529.90820	1357.85498	189.62810	-586.79254	1315.02869	91.66677	-538.17072	1261.52173	107.32493	-538.27502	1355.39331	33.46931	-461.94049	1295.42468	421.12231	-263.78912	1286.49109	327.85358	-308.60822	1223.84924	181.94432	-255.75824	1138.43823	118.08530	-280.36511	1109.55530	163.81331	-291.06784	1103.03186	33.75875	-334.74377 
68	0.670	1363.09192	348.70593	-483.49445	1310.71143	590.39978	-488.21460	1304.47131	92.09274	-507.22171	1293.57458	329.82877	-357.27322	1306.41406	583.10968	-355.56015	1133.94653	126.51672	-308.71393	1361.00720	636.79413	-505.08868	1354.00635	627.09955	-329.77869	1240.54443	666.41724	-452.59546	1242.72180	661.93286	-391.78616	1345.09570	437.54883	-580.65796	1363.85706	347.97357	-529.48224	1357.52734	190.41809	-586.28937	1315.04919	92.46854	-537.42035	1261.65955	108.32100	-537.06110	1355.40771	33.47810	-461.80902	1307.95044	422.23453	-265.16309	1298.44507	329.26910	-311.03235	1237.14160	182.52403	-258.77298	1151.32275	119.19646	-282.24258	1121.48621	164.66151	-292.24023	1116.53955	34.11538	-335.60458 
69	0.680	1363.88977	349.63867	-483.10364	1315.51563	592.27338	-488.07208	1304.81433	92.89979	-506.38138	1303.95911	331.80173	-359.19479	1312.44299	585.68732	-355.34674	1146.37659	127.99579	-310.25787	1365.67102	638.54761	-505.55624	1360.29517	629.79395	-330.34024	1245.78467	668.45807	-452.11496	1248.26404	664.41443	-391.07883	1346.65332	438.62628	-580.33679	1364.30457	348.77954	-529.09369	1357.13037	191.26247	-585.82928	1315.09265	93.28214	-536.68335	1261.84875	109.32510	-535.84259	1355.43250	33.48705	-461.69141	1319.71497	423.55740	-266.35605	1310.32117	330.89111	-313.14102	1250.14478	183.45648	-261.48688	1164.27234	120.41338	-284.20981	1133.53540	165.54597	-293.77130	1130.65027	34.65045	-336.78717 
70	0.690	1364.84973	350.56180	-482.78378	1320.11536	593.99829	-487.79028	1305.21667	93.68277	-505.52744	1314.76111	333.82605	-360.76703	1318.18030	588.16156	-355.00830	1159.03027	129.42343	-311.95697	1370.15759	640.12329	-505.89911	1366.28687	632.36633	-330.73059	1250.89417	670.40021	-451.61243	1253.60913	666.78729	-390.36407	1347.63928	439.56805	-580.01453	1364.61914	349.57361	-528.77258	1356.60925	192.11914	-585.43866	1315.11816	94.07807	-535.95435	1262.05322	110.31336	-534.60083	1355.46545	33.49602	-461.58325	1330.59790	425.04684	-267.31082	1322.08862	332.68814	-314.86209	1262.84668	184.71938	-263.78732	1177.23413	121.71411	-286.16092	1145.67236	166.46596	-295.54947	1145.24500	35.39608	-338.24725 
